<svg width="169" height="52" viewBox="0 0 169 52" fill="none" xmlns="http://www.w3.org/2000/svg">
<path d="M48.4923 35.5505C46.5141 40.9856 42.7126 45.5666 37.7354 48.513C32.7583 51.4594 26.9135 52.5889 21.1969 51.709C15.4804 50.8292 10.2457 47.9944 6.38493 43.6877C2.52415 39.381 0.276086 33.8689 0.0237948 28.0905C-0.228497 22.3121 1.53059 16.625 5.00133 11.9982C8.47207 7.37143 13.4397 4.0912 19.0578 2.71645C24.676 1.3417 30.597 1.95749 35.812 4.4589C41.027 6.9603 45.2133 11.1926 47.6577 16.4345L40.4066 19.8158C38.7445 16.2514 35.8979 13.3736 32.3518 11.6727C28.8058 9.9718 24.7797 9.55308 20.9595 10.4879C17.1393 11.4227 13.7615 13.6531 11.4015 16.7992C9.04146 19.9453 7.84533 23.8124 8.01688 27.7415C8.18843 31.6706 9.71705 35.4187 12.3423 38.3472C14.9675 41.2756 18.5269 43.2032 22.414 43.8014C26.3011 44.3997 30.2754 43.6317 33.6597 41.6282C37.044 39.6248 39.629 36.5098 40.9741 32.8141L48.4923 35.5505Z" fill="#003399"/>
<path d="M68.915 34.582C66.913 36.558 64.469 37.546 61.583 37.546C58.697 37.546 56.253 36.558 54.251 34.582C52.275 32.58 51.287 30.136 51.287 27.25C51.287 24.364 52.275 21.933 54.251 19.957C56.253 17.955 58.697 16.954 61.583 16.954C64.469 16.954 66.913 17.955 68.915 19.957C70.917 21.933 71.918 24.364 71.918 27.25C71.918 30.136 70.917 32.58 68.915 34.582ZM57.8 31.111C58.814 32.125 60.075 32.632 61.583 32.632C63.091 32.632 64.352 32.125 65.366 31.111C66.38 30.097 66.887 28.81 66.887 27.25C66.887 25.69 66.38 24.403 65.366 23.389C64.352 22.375 63.091 21.868 61.583 21.868C60.075 21.868 58.814 22.375 57.8 23.389C56.812 24.403 56.318 25.69 56.318 27.25C56.318 28.81 56.812 30.097 57.8 31.111ZM88.3273 17.5H93.3583V37H88.3273V34.816C87.1053 36.636 85.1683 37.546 82.5163 37.546C80.3843 37.546 78.6163 36.831 77.2123 35.401C75.8343 33.971 75.1453 31.995 75.1453 29.473V17.5H80.1763V28.849C80.1763 30.149 80.5273 31.15 81.2293 31.852C81.9313 32.528 82.8673 32.866 84.0373 32.866C85.3373 32.866 86.3773 32.463 87.1573 31.657C87.9373 30.851 88.3273 29.642 88.3273 28.03V17.5ZM108.808 16.954C110.94 16.954 112.695 17.669 114.073 19.099C115.477 20.529 116.179 22.505 116.179 25.027V37H111.148V25.651C111.148 24.351 110.797 23.363 110.095 22.687C109.393 21.985 108.457 21.634 107.287 21.634C105.987 21.634 104.947 22.037 104.167 22.843C103.387 23.649 102.997 24.858 102.997 26.47V37H97.966V17.5H102.997V19.684C104.219 17.864 106.156 16.954 108.808 16.954ZM131.629 22.336H127.222V30.448C127.222 31.124 127.391 31.618 127.729 31.93C128.067 32.242 128.561 32.424 129.211 32.476C129.861 32.502 130.667 32.489 131.629 32.437V37C128.171 37.39 125.727 37.065 124.297 36.025C122.893 34.985 122.191 33.126 122.191 30.448V22.336H118.798V17.5H122.191V13.561L127.222 12.04V17.5H131.629V22.336ZM138.818 29.317C139.494 31.761 141.327 32.983 144.317 32.983C146.241 32.983 147.697 32.333 148.685 31.033L152.741 33.373C150.817 36.155 147.983 37.546 144.239 37.546C141.015 37.546 138.428 36.571 136.478 34.621C134.528 32.671 133.553 30.214 133.553 27.25C133.553 24.312 134.515 21.868 136.439 19.918C138.363 17.942 140.833 16.954 143.849 16.954C146.709 16.954 149.062 17.942 150.908 19.918C152.78 21.894 153.716 24.338 153.716 27.25C153.716 27.9 153.651 28.589 153.521 29.317H138.818ZM138.74 25.417H148.685C148.399 24.091 147.801 23.103 146.891 22.453C146.007 21.803 144.993 21.478 143.849 21.478C142.497 21.478 141.379 21.829 140.495 22.531C139.611 23.207 139.026 24.169 138.74 25.417ZM162.259 20.854C162.727 19.606 163.494 18.67 164.56 18.046C165.652 17.422 166.861 17.11 168.187 17.11V22.726C166.653 22.544 165.275 22.856 164.053 23.662C162.857 24.468 162.259 25.807 162.259 27.679V37H157.228V17.5H162.259V20.854Z" fill="#F27C0F"/>
</svg>
